<?xml version="1.0" standalone="no"?>
<!DOCTYPE svg PUBLIC "-//W3C//DTD SVG 20010904//EN"
 "http://www.w3.org/TR/2001/REC-SVG-20010904/DTD/svg10.dtd">
<svg version="1.0" xmlns="http://www.w3.org/2000/svg"
 width="1024.000000pt" height="1024.000000pt" viewBox="0 0 1024.000000 1024.000000"
 preserveAspectRatio="xMidYMid meet">

<g transform="translate(0.000000,1024.000000) scale(0.100000,-0.100000)"
fill="#000000" stroke="none">
<path d="M5056 8228 c-64 -55 -204 -213 -249 -281 -60 -90 -113 -207 -136
-296 -36 -145 -25 -332 28 -453 l20 -47 65 37 c47 26 64 41 60 52 -37 94 -45
127 -42 188 l3 67 19 -35 c11 -19 27 -56 36 -82 16 -44 59 -118 70 -118 3 0
34 17 70 38 60 35 65 41 68 76 3 35 -1 42 -56 92 -90 81 -143 170 -113 188 5
3 45 -26 90 -64 l81 -70 0 112 c0 62 4 118 8 123 4 6 22 11 40 11 l32 2 0
-130 0 -130 82 76 c45 42 85 76 89 76 4 0 10 -8 13 -17 11 -27 -56 -123 -123
-178 -59 -47 -62 -52 -59 -90 3 -37 7 -42 68 -77 36 -21 68 -38 72 -38 16 0
58 77 79 145 26 83 34 94 48 67 13 -25 -3 -130 -30 -192 l-20 -44 23 -18 c13
-10 41 -27 62 -39 38 -20 40 -20 53 -3 8 10 25 55 40 99 22 68 26 97 26 195
-2 256 -97 448 -345 693 -59 59 -112 107 -116 107 -4 0 -29 -19 -56 -42z m136
-186 c120 -126 213 -279 206 -339 -5 -43 -26 -39 -48 11 -10 25 -38 73 -60
106 -46 67 -157 203 -170 208 -24 9 -167 -167 -232 -285 -29 -53 -43 -70 -55
-66 -11 4 -13 14 -9 37 9 42 58 145 97 203 34 49 177 203 189 203 4 0 41 -35
82 -78z"/>
<path d="M4156 7965 c-128 -33 -211 -98 -176 -140 18 -22 44 -18 86 10 116 78
301 77 423 -4 41 -28 46 -28 68 -14 36 24 30 58 -14 86 -107 67 -266 92 -387
62z"/>
<path d="M5818 7918 c-60 -28 -108 -55 -108 -59 0 -18 56 -22 115 -8 68 16
148 18 218 5 l47 -8 0 35 c0 34 -1 35 -72 61 -40 14 -77 26 -83 26 -5 -1 -58
-24 -117 -52z"/>
<path d="M6140 7872 c0 -26 3 -28 30 -24 42 6 46 18 11 37 -40 20 -41 20 -41
-13z"/>
<path d="M5860 7824 c-30 -8 -58 -18 -63 -23 -4 -4 -10 -44 -14 -88 l-6 -81
57 -13 c48 -10 68 -10 134 4 43 10 80 17 83 17 3 0 3 -20 -1 -45 l-7 -45 44 0
43 0 0 56 c0 43 -4 60 -17 70 -14 9 -18 27 -18 76 l0 63 -65 12 c-83 15 -103
15 -170 -3z"/>
<path d="M4177 7796 c-45 -17 -117 -63 -117 -75 0 -10 53 -51 65 -51 3 0 21
11 38 24 71 54 152 54 229 1 36 -24 39 -25 63 -9 34 22 31 45 -10 73 -74 50
-187 66 -268 37z"/>
<path d="M3277 7553 c-9 -59 -20 -154 -23 -210 l-7 -103 -124 0 c-91 0 -132
-4 -153 -15 -40 -21 -70 -82 -70 -145 l0 -50 -35 0 -35 0 0 -70 0 -70 -55 0
c-60 0 -75 -13 -75 -69 0 -45 23 -61 88 -61 34 -1 65 -7 76 -15 24 -18 107
-20 124 -2 7 6 43 14 80 17 64 5 67 6 75 36 7 22 5 40 -4 60 -13 26 -20 29
-72 32 l-57 3 0 69 c0 68 -1 70 -25 70 -23 0 -25 3 -25 49 0 34 6 56 21 75 20
26 23 26 143 26 l122 0 13 -107 c27 -237 135 -440 291 -548 l39 -27 178 92
c98 51 184 98 192 105 12 12 9 21 -21 62 l-34 48 -105 7 c-112 9 -199 29 -218
52 -10 12 9 15 128 18 77 1 142 6 146 9 3 4 -19 40 -50 80 l-57 74 -112 6
c-106 6 -186 26 -186 47 0 9 124 22 214 22 l49 0 -19 23 c-55 61 -115 177 -93
177 18 0 102 -65 147 -114 40 -44 42 -44 48 -22 3 13 6 61 7 107 l2 84 -60 32
c-33 18 -118 51 -189 74 -103 32 -131 38 -137 27 -6 -8 -9 -2 -9 20 0 38 11
40 117 18 264 -56 456 -174 530 -324 24 -49 28 -69 28 -142 0 -72 -4 -93 -27
-140 -15 -30 -34 -64 -42 -75 -14 -18 -12 -24 22 -69 l36 -49 47 51 c65 71 84
130 84 262 -1 125 -20 185 -92 280 -140 186 -374 286 -738 315 l-81 6 -17
-108z"/>
<path d="M4209 7637 c-47 -31 -51 -71 -10 -85 26 -9 31 -8 36 8 12 37 69 36
80 -1 8 -24 37 -25 57 -1 24 29 11 61 -37 86 -42 22 -86 20 -126 -7z"/>
<path d="M6770 7649 c-117 -12 -329 -71 -425 -118 -126 -62 -234 -164 -281
-266 -34 -73 -47 -147 -42 -245 6 -104 32 -170 92 -229 l42 -41 33 45 33 46
-38 76 c-37 72 -39 81 -39 167 0 76 4 99 25 141 34 71 140 173 225 217 125 64
415 143 415 113 0 -7 2 -28 6 -46 l5 -34 -16 28 c-15 26 -17 26 -43 13 -15 -8
-72 -29 -127 -46 -55 -18 -127 -46 -161 -62 l-60 -30 3 -57 c2 -31 9 -78 15
-105 l11 -49 34 41 c33 39 151 127 160 118 7 -7 -31 -88 -71 -150 l-36 -56 63
-1 c34 -1 89 -4 122 -8 l60 -6 -25 -17 c-35 -24 -103 -37 -185 -38 -38 0 -75
-4 -80 -8 -6 -4 -32 -38 -59 -76 -38 -54 -46 -70 -35 -77 8 -5 73 -9 144 -10
l130 -1 -64 -30 c-57 -28 -75 -31 -164 -33 -111 -3 -103 1 -167 -87 l-20 -26
128 -70 c70 -38 156 -84 191 -102 l64 -32 53 37 c101 70 183 182 232 318 27
74 40 136 57 280 l6 47 119 0 c139 0 162 -10 164 -75 1 -39 0 -40 -40 -45
-102 -14 -124 -58 -124 -242 0 -119 3 -137 23 -173 31 -56 91 -85 176 -85 86
0 143 27 176 84 23 40 25 52 25 182 0 120 -3 143 -20 171 -25 41 -59 63 -110
70 -38 5 -40 7 -40 42 0 20 -9 50 -20 68 -32 53 -63 63 -203 63 l-125 0 -7 83
c-7 89 -19 177 -36 275 l-11 62 -37 -1 c-20 -1 -74 -6 -121 -10z m570 -778 c0
-31 5 -53 15 -61 8 -7 15 -17 15 -22 0 -21 -32 -77 -47 -82 -22 -9 -58 17 -73
53 -11 27 -10 34 4 50 10 11 16 35 16 64 l0 47 35 0 35 0 0 -49z"/>
<path d="M3864 7221 c1 -80 -3 -123 -11 -133 -11 -12 -7 -22 20 -54 19 -21 45
-56 59 -77 l26 -38 21 27 c30 39 54 128 46 172 -13 70 -71 156 -135 202 l-27
19 1 -118z"/>
<path d="M6298 7283 c-98 -99 -121 -189 -74 -289 13 -28 29 -55 35 -58 11 -7
41 23 94 97 25 34 27 42 18 69 -13 37 -14 148 -2 201 13 53 -4 48 -71 -20z"/>
<path d="M4397 7220 c-36 -29 -50 -83 -33 -125 18 -43 52 -65 99 -65 55 0 107
52 107 107 -1 85 -106 136 -173 83z m103 -55 c30 -36 -16 -88 -58 -66 -25 13
-31 31 -21 59 10 26 59 31 79 7z"/>
<path d="M5694 7222 c-55 -44 -59 -109 -10 -158 28 -28 42 -34 75 -34 56 0
100 39 108 97 5 39 2 46 -30 78 -29 29 -42 35 -78 35 -27 0 -53 -7 -65 -18z
m94 -48 c33 -23 26 -65 -11 -78 -36 -13 -61 2 -65 40 -3 18 2 32 14 41 23 17
35 16 62 -3z"/>
<path d="M4980 7057 c-237 -139 -585 -341 -775 -450 -284 -163 -455 -267 -455
-277 0 -14 230 -148 560 -327 162 -88 400 -220 528 -292 128 -72 243 -137 256
-143 21 -9 41 -1 158 65 328 184 563 315 828 462 329 182 400 223 400 234 0
10 -352 217 -1005 591 -132 76 -267 154 -299 174 -33 20 -62 36 -65 36 -3 0
-62 -33 -131 -73z m351 -196 c123 -70 294 -169 379 -220 85 -50 224 -130 307
-179 l153 -87 -38 -18 -38 -19 -204 114 c-113 63 -275 155 -360 205 -85 49
-214 122 -287 162 l-131 72 -44 -22 c-24 -12 -180 -101 -348 -197 -168 -97
-366 -210 -440 -253 l-135 -78 -55 12 -54 12 244 147 c135 80 328 193 430 250
255 145 299 170 345 201 22 14 43 26 46 26 3 1 107 -57 230 -128z m-94 -307
c101 -21 217 -80 292 -150 34 -31 61 -59 61 -63 0 -5 -60 -49 -81 -59 -3 -1
-25 16 -50 39 -61 56 -188 117 -269 128 -149 20 -307 -27 -418 -125 l-52 -46
-45 29 c-25 15 -45 30 -45 33 0 13 100 101 150 132 72 45 130 67 215 83 96 18
153 18 242 -1z m-19 -239 c56 -17 166 -87 188 -121 13 -19 11 -23 -27 -53
l-41 -33 -36 35 c-61 58 -97 72 -187 72 -88 0 -117 -11 -192 -72 l-42 -35 -41
39 -41 38 53 41 c66 51 103 70 170 88 70 19 133 19 196 1z"/>
<path d="M2906 6404 c-37 -7 -91 -21 -120 -30 -66 -22 -219 -84 -229 -93 -11
-11 46 -225 88 -331 67 -168 153 -294 265 -387 76 -63 234 -146 313 -163 l54
-13 5 -566 6 -566 26 -81 c46 -143 136 -253 256 -314 102 -52 114 -53 485 -59
l350 -6 288 -142 c311 -154 357 -173 416 -173 64 0 128 25 391 156 140 69 277
135 303 145 43 17 77 19 355 19 344 0 401 7 505 62 84 44 174 136 215 221 59
122 62 148 62 512 0 181 3 434 7 561 l6 231 62 12 c51 9 70 8 106 -4 60 -21
113 -66 138 -118 26 -54 30 -187 6 -207 -19 -16 -19 -59 0 -66 11 -5 15 -22
15 -65 0 -52 -2 -59 -20 -59 -11 0 -37 -15 -58 -34 l-37 -35 0 -103 c0 -117
15 -155 75 -195 40 -28 81 -29 138 -3 61 27 81 77 82 193 0 108 -13 137 -75
167 l-45 22 0 53 c0 30 5 57 10 60 6 3 10 19 10 35 0 16 -4 32 -10 35 -5 3
-10 41 -10 83 0 42 -5 94 -10 114 -16 57 -69 118 -132 152 l-56 32 65 33 c79
42 208 161 263 244 57 87 114 206 150 315 36 111 62 221 55 232 -2 4 -44 24
-91 45 -297 127 -615 125 -842 -6 l-54 -30 187 -115 c103 -63 191 -114 196
-114 5 0 31 36 60 80 49 78 61 86 92 74 14 -5 13 -12 -3 -58 -9 -28 -27 -71
-39 -94 -12 -24 -19 -47 -16 -52 3 -6 39 -10 79 -10 89 0 138 -9 133 -24 -7
-21 -101 -45 -179 -46 l-77 0 -83 -92 c-46 -50 -122 -133 -170 -183 l-88 -91
0 -620 c0 -540 -2 -627 -16 -674 -30 -100 -93 -172 -194 -219 l-55 -26 -375
-3 -375 -3 -318 -160 c-175 -87 -324 -159 -331 -159 -7 0 -158 73 -336 161
l-323 162 -366 1 c-357 1 -367 2 -422 24 -74 30 -132 73 -164 121 -55 82 -55
82 -55 765 l0 632 -71 69 c-39 39 -113 120 -165 181 l-95 111 -102 5 c-70 4
-114 11 -139 23 -21 10 -38 22 -38 25 0 10 82 20 166 20 41 0 74 2 74 3 0 2
-14 31 -31 65 -35 70 -44 144 -18 150 11 2 31 -21 63 -72 26 -42 51 -78 56
-81 7 -4 110 55 323 188 26 16 47 33 47 39 0 15 -163 87 -246 108 -92 24 -261
26 -368 4z m319 -95 c56 -14 95 -30 95 -39 0 -4 -75 -6 -167 -3 -152 5 -179 3
-280 -20 -109 -24 -113 -24 -129 -6 -19 22 -25 19 90 50 142 38 283 45 391 18z
m4112 -5 c76 -15 150 -40 167 -55 23 -21 -55 -20 -163 1 -103 20 -133 22 -276
16 -140 -5 -158 -4 -145 8 44 44 273 60 417 30z m-4259 -410 c10 -10 -61 5
-71 15 -6 6 6 6 28 1 20 -4 40 -12 43 -16z m4249 -864 c-1 -22 -12 -26 -23 -9
-3 6 0 15 7 20 18 12 18 12 16 -11z m7 -186 c9 -24 7 -117 -4 -134 -16 -25
-45 1 -48 46 -5 61 6 104 27 104 11 0 22 -7 25 -16z"/>
<path d="M3633 5184 c2 -963 -1 -915 62 -954 29 -18 50 -20 196 -20 l163 0
-35 26 c-19 14 -72 51 -119 81 -47 31 -88 61 -92 67 -4 6 -8 343 -8 749 l0
737 23 0 c66 0 204 69 180 90 -4 4 -35 17 -68 30 -33 13 -75 33 -94 44 -25 15
-58 21 -122 24 l-88 4 2 -878z"/>
<path d="M6420 6046 c-36 -14 -192 -86 -199 -92 -2 -2 2 -11 10 -20 22 -27
111 -64 154 -64 l40 0 -3 -748 -2 -747 -48 -29 c-47 -28 -204 -139 -200 -140
2 -1 81 1 176 4 l174 5 32 36 33 35 7 215 c3 118 6 517 6 887 l-1 672 -72 0
c-40 -1 -88 -7 -107 -14z"/>
<path d="M6780 5908 l0 -101 28 24 c15 13 46 41 69 63 l43 40 -66 38 c-36 21
-67 38 -70 38 -2 0 -4 -46 -4 -102z"/>
<path d="M3375 5969 c-33 -18 -61 -32 -62 -33 -2 -1 29 -30 67 -65 l70 -62 0
95 c0 53 -3 96 -7 96 -5 0 -35 -14 -68 -31z"/>
<path d="M4150 5730 c0 -71 -1 -130 -3 -130 -2 0 -25 7 -51 16 -40 14 -52 14
-72 3 l-24 -12 2 -590 3 -590 176 -81 c96 -45 263 -119 370 -165 107 -46 262
-115 344 -153 161 -74 223 -89 277 -68 18 8 133 58 256 112 122 54 248 109
280 121 31 13 159 70 285 127 l227 103 0 588 c0 521 -2 589 -16 603 -19 20
-26 20 -71 1 -64 -27 -63 -28 -63 115 0 110 -2 130 -15 130 -20 0 -304 -160
-477 -269 -138 -86 -309 -203 -305 -208 8 -7 386 161 524 232 89 47 164 85
167 85 3 0 6 -29 6 -65 0 -54 -3 -66 -20 -75 -15 -8 -21 -6 -30 10 -6 11 -14
20 -18 20 -4 0 -6 -70 -4 -155 l3 -155 -26 0 -25 0 0 150 c0 141 -1 150 -19
150 -22 0 -31 -19 -31 -65 0 -37 8 -32 -150 -89 -52 -18 -194 -74 -315 -123
-158 -64 -226 -88 -240 -82 -11 4 -114 46 -230 94 -115 47 -286 116 -380 152
-243 93 -225 80 -225 163 l0 70 143 -74 c78 -41 216 -105 307 -142 91 -36 182
-75 203 -85 20 -11 37 -17 37 -15 0 29 -737 476 -784 476 -14 0 -16 -18 -16
-130z m470 -488 c124 -50 279 -116 345 -146 l120 -54 3 -301 2 -301 -43 21
-44 22 2 221 c2 121 0 249 -4 283 l-6 63 -85 41 c-47 22 -206 92 -355 154
-148 62 -291 123 -318 134 l-47 20 2 -196 3 -197 45 -31 c25 -16 108 -63 185
-103 77 -41 131 -70 120 -67 -116 39 -340 133 -377 158 l-48 32 0 222 0 221
138 -53 c75 -29 238 -93 362 -143z m1322 -132 c11 -58 20 -121 21 -140 l2 -35
-79 -3 c-44 -2 -84 -1 -91 2 -8 3 -6 41 11 143 12 76 22 139 23 141 1 2 22 2
48 0 l47 -3 18 -105z m-1685 -451 c65 -28 197 -82 293 -121 96 -38 261 -108
367 -155 l192 -85 116 52 c64 28 173 73 243 100 70 27 150 59 177 71 28 12
141 59 253 105 l202 83 0 -100 0 -100 -77 -35 c-43 -20 -159 -71 -258 -114
-99 -43 -225 -99 -280 -125 -55 -26 -163 -72 -239 -101 l-139 -54 -161 71
c-89 38 -245 107 -349 151 -103 44 -186 83 -183 85 2 3 40 -11 85 -31 44 -19
138 -56 208 -81 70 -25 170 -62 220 -82 51 -20 96 -33 100 -30 3 4 4 8 2 10
-12 10 -197 84 -379 152 -113 43 -234 90 -269 106 -66 30 -97 37 -86 19 7 -11
-74 19 -135 50 l-40 20 0 95 c0 52 4 95 9 95 5 0 63 -23 128 -51z"/>
<path d="M4260 4604 c0 -10 162 -80 460 -199 288 -115 350 -138 350 -130 0 9
-89 49 -346 154 -148 60 -307 125 -352 145 -80 34 -112 43 -112 30z"/>
<path d="M5860 4569 c-107 -46 -363 -148 -583 -234 -82 -31 -146 -59 -144 -61
12 -12 618 219 787 300 101 49 58 45 -60 -5z"/>
<path d="M4269 4533 c41 -28 247 -118 416 -181 88 -33 200 -76 248 -96 92 -38
139 -48 102 -22 -11 7 -150 65 -310 129 -159 63 -328 131 -373 151 -90 39
-121 46 -83 19z"/>
<path d="M5905 4520 c-27 -10 -99 -39 -160 -65 -92 -39 -322 -126 -502 -191
-36 -13 -78 -44 -59 -44 13 0 517 191 603 228 161 70 238 118 118 72z"/>
<path d="M5845 4428 c-39 -16 -198 -79 -354 -139 -285 -110 -328 -128 -303
-129 32 0 631 227 721 274 51 27 2 23 -64 -6z"/>
<path d="M2616 5239 l-26 -20 0 -159 c0 -116 3 -161 13 -167 6 -4 48 -10 92
-13 73 -5 78 -7 53 -18 -18 -7 -28 -19 -28 -32 0 -19 6 -20 120 -20 l120 0
-14 35 -15 35 63 0 c94 0 96 3 96 193 0 150 -1 156 -22 171 -19 13 -58 16
-224 16 -189 0 -203 -1 -228 -21z m432 -171 l3 -138 -199 0 c-141 0 -201 3
-210 12 -17 17 -17 254 1 261 6 3 100 5 207 4 l195 -2 3 -137z m-178 -193 c0
-10 -11 -15 -35 -15 -24 0 -35 5 -35 15 0 10 11 15 35 15 24 0 35 -5 35 -15z"/>
<path d="M2754 5161 c-23 -10 -49 -29 -58 -42 -14 -21 -14 -24 0 -32 11 -6 22
-3 37 11 51 48 108 53 186 17 30 -14 56 -23 60 -20 11 12 -16 41 -59 63 -54
27 -111 28 -166 3z"/>
<path d="M2780 5087 c-27 -9 -36 -18 -38 -39 -4 -31 5 -35 34 -13 25 19 85 19
110 0 28 -21 54 -19 54 5 0 15 -13 27 -42 40 -49 22 -69 24 -118 7z"/>
<path d="M2810 4995 c0 -20 5 -25 25 -25 20 0 25 5 25 25 0 20 -5 25 -25 25
-20 0 -25 -5 -25 -25z"/>
<path d="M7150 5060 c-16 -30 -3 -60 25 -60 34 0 48 31 29 58 -19 28 -40 28
-54 2z"/>
<path d="M7406 5064 c-9 -8 -16 -19 -16 -24 0 -12 29 -40 42 -40 21 0 47 31
41 48 -13 34 -42 41 -67 16z"/>
<path d="M7520 5065 c-26 -32 13 -81 48 -59 34 22 22 74 -18 74 -10 0 -23 -7
-30 -15z"/>
<path d="M2544 4716 c-13 -33 0 -51 36 -51 32 0 35 2 35 30 0 27 -4 30 -33 33
-22 2 -34 -2 -38 -12z"/>
<path d="M2660 4695 c0 -33 2 -35 35 -35 33 0 35 2 35 35 0 33 -2 35 -35 35
-33 0 -35 -2 -35 -35z"/>
<path d="M2774 4716 c-13 -33 0 -51 39 -54 36 -3 37 -3 37 32 0 34 -2 36 -35
36 -22 0 -38 -6 -41 -14z"/>
<path d="M2897 4724 c-4 -4 -7 -20 -7 -36 0 -26 3 -28 41 -28 39 0 40 1 37 33
-3 28 -7 32 -33 35 -17 2 -34 0 -38 -4z"/>
<path d="M3012 4698 c3 -29 7 -33 36 -36 31 -3 32 -2 32 32 0 35 -1 36 -36 36
-34 0 -35 -1 -32 -32z"/>
<path d="M2542 4588 c3 -30 6 -33 38 -33 32 0 35 3 38 33 3 31 3 32 -38 32
-41 0 -41 -1 -38 -32z"/>
<path d="M2660 4590 c0 -28 3 -30 35 -30 32 0 35 2 35 30 0 28 -3 30 -35 30
-32 0 -35 -2 -35 -30z"/>
<path d="M2770 4590 c0 -28 2 -30 40 -30 38 0 40 2 40 30 0 28 -2 30 -40 30
-38 0 -40 -2 -40 -30z"/>
<path d="M2890 4590 c0 -28 2 -30 40 -30 38 0 40 2 40 30 0 28 -2 30 -40 30
-38 0 -40 -2 -40 -30z"/>
<path d="M3010 4590 c0 -28 3 -30 35 -30 32 0 35 2 35 30 0 28 -3 30 -35 30
-32 0 -35 -2 -35 -30z"/>
<path d="M4185 3585 c-40 -39 -31 -89 18 -110 66 -28 125 31 93 93 -25 49 -72
56 -111 17z"/>
<path d="M5940 3588 c-29 -32 -27 -81 6 -107 34 -27 57 -26 90 2 54 47 24 127
-47 127 -16 0 -37 -9 -49 -22z"/>
<path d="M4512 3478 c-7 -7 -12 -21 -12 -33 0 -12 5 -26 12 -33 7 -7 21 -12
33 -12 12 0 26 5 33 12 7 7 12 21 12 33 0 12 -5 26 -12 33 -7 7 -21 12 -33 12
-12 0 -26 -5 -33 -12z"/>
<path d="M5642 3478 c-7 -7 -12 -21 -12 -33 0 -44 60 -63 80 -26 14 27 13 37
-6 55 -18 19 -45 21 -62 4z"/>
<path d="M2430 3119 c-131 -22 -252 -117 -313 -246 -30 -64 -32 -74 -32 -183
0 -110 2 -119 32 -180 76 -154 214 -241 380 -241 137 0 257 55 333 151 l30 38
0 141 0 141 -189 0 -189 0 1 -80 2 -80 98 0 98 0 -3 -47 c-3 -46 -5 -49 -50
-71 -71 -35 -151 -40 -216 -12 -166 71 -212 286 -92 424 81 92 221 107 330 36
l45 -30 57 63 c31 34 57 64 58 67 0 10 -106 70 -156 89 -62 23 -154 31 -224
20z"/>
<path d="M5200 2695 l0 -415 250 0 250 0 0 80 0 80 -160 0 -160 0 0 335 0 335
-90 0 -90 0 0 -415z"/>
<path d="M3547 2919 c-137 -33 -226 -149 -235 -304 -5 -101 19 -172 83 -243
66 -74 120 -96 230 -96 78 0 98 3 152 28 34 15 70 37 79 48 17 18 16 21 -32
69 l-51 51 -38 -26 c-30 -20 -50 -26 -95 -26 -66 0 -112 25 -143 78 l-19 32
212 0 213 0 -5 83 c-4 53 -13 101 -27 133 -25 59 -100 137 -151 157 -48 20
-127 27 -173 16z m134 -166 c26 -22 59 -76 59 -98 0 -3 -58 -5 -130 -5 -89 0
-130 4 -130 11 0 23 42 86 68 102 42 26 95 22 133 -10z"/>
<path d="M4161 2914 c-98 -26 -164 -83 -207 -179 -61 -137 -25 -290 92 -394
108 -95 297 -93 412 4 l33 28 -46 47 -47 48 -44 -25 c-39 -22 -55 -25 -111
-21 -65 4 -67 5 -111 54 l-45 49 217 3 216 2 0 75 c0 218 -167 362 -359 309z
m129 -149 c35 -18 70 -65 70 -94 0 -20 -5 -21 -135 -21 -74 0 -135 3 -135 8 0
4 10 25 23 47 37 66 114 92 177 60z"/>
<path d="M7299 2920 c-59 -10 -85 -23 -131 -68 l-38 -36 0 52 0 52 -80 0 -80
0 0 -320 0 -321 83 3 82 3 5 185 c6 208 9 219 77 261 30 19 52 24 106 24 l68
0 -2 80 c-1 76 -9 96 -34 94 -5 -1 -31 -5 -56 -9z"/>
<path d="M2915 2907 c-3 -7 -4 -149 -3 -317 l3 -305 83 -3 82 -3 0 185 0 185
31 36 c44 50 78 65 148 65 l60 0 -2 85 -2 85 -40 0 c-64 0 -109 -17 -159 -61
l-46 -41 0 51 0 51 -75 0 c-52 0 -77 -4 -80 -13z"/>
<path d="M4570 2600 l0 -320 85 0 85 0 0 191 c0 213 7 246 64 280 38 23 77 24
117 3 52 -26 59 -61 59 -279 l0 -195 86 0 85 0 -3 238 c-3 220 -5 240 -25 277
-45 83 -114 125 -208 125 -60 0 -116 -22 -149 -59 -28 -30 -36 -26 -36 19 l0
40 -80 0 -80 0 0 -320z"/>
<path d="M5870 2903 c-64 -23 -141 -104 -170 -178 -81 -214 54 -435 276 -453
78 -6 184 24 234 67 l35 29 -49 50 -49 51 -28 -22 c-36 -26 -135 -35 -179 -17
-30 13 -90 72 -90 90 0 6 82 10 210 10 l210 0 0 75 c0 133 -62 244 -164 291
-61 29 -166 31 -236 7z m178 -143 c29 -18 62 -71 62 -100 0 -6 -47 -10 -130
-10 -143 0 -145 1 -110 58 41 67 116 89 178 52z"/>
<path d="M6425 2896 c-115 -38 -109 -34 -82 -70 13 -17 32 -47 42 -66 10 -19
19 -37 21 -39 2 -2 15 6 29 17 37 29 124 46 171 33 52 -14 84 -47 84 -87 0
-32 -1 -33 -27 -23 -108 42 -303 -23 -347 -116 -18 -38 -21 -121 -5 -162 15
-42 68 -92 109 -103 85 -24 170 -4 249 59 l36 29 -4 -44 -3 -44 81 0 81 0 0
221 c0 146 -4 236 -12 263 -17 55 -82 119 -143 139 -72 25 -193 22 -280 -7z
m233 -342 c87 -35 -12 -166 -112 -147 -32 6 -76 56 -76 87 0 28 26 65 54 76
25 11 88 3 134 -16z"/>
<path d="M7450 2600 l0 -320 84 0 84 0 3 193 c4 181 5 194 27 230 52 83 156
91 202 15 18 -30 20 -51 20 -235 l0 -203 86 0 85 0 -3 238 c-3 220 -5 240 -25
277 -74 139 -250 169 -360 63 l-33 -32 0 47 0 47 -85 0 -85 0 0 -320z"/>
</g>
</svg>
